<svg xmlns="http://www.w3.org/2000/svg" xmlns:xlink="http://www.w3.org/1999/xlink" width="500" zoomAndPan="magnify" viewBox="0 0 375 374.999991" height="500" preserveAspectRatio="xMidYMid meet" version="1.0"><defs><clipPath id="8d803b2389"><path d="M 238 181 L 262.5 181 L 262.5 208.703125 L 238 208.703125 Z M 238 181 " clip-rule="nonzero"/></clipPath><clipPath id="dbdc6c19e7"><path d="M 112.5 166 L 231 166 L 231 208.703125 L 112.5 208.703125 Z M 112.5 166 " clip-rule="nonzero"/></clipPath><clipPath id="ba715d6935"><path d="M 144 181 L 222 181 L 222 208.703125 L 144 208.703125 Z M 144 181 " clip-rule="nonzero"/></clipPath></defs><g clip-path="url(#8d803b2389)"><path fill="#83cd29" d="M 250.496094 181.160156 C 250.132812 181.160156 249.777344 181.234375 249.460938 181.410156 L 239.515625 187.109375 C 238.875 187.476562 238.484375 188.171875 238.484375 188.910156 L 238.484375 200.285156 C 238.484375 201.027344 238.875 201.71875 239.515625 202.089844 L 242.113281 203.574219 C 243.375 204.191406 243.839844 204.179688 244.417969 204.179688 C 246.285156 204.179688 247.351562 203.054688 247.351562 201.101562 L 247.351562 189.878906 C 247.351562 189.71875 247.210938 189.605469 247.054688 189.605469 L 245.808594 189.605469 C 245.648438 189.605469 245.515625 189.722656 245.515625 189.878906 L 245.515625 201.105469 C 245.515625 201.972656 244.605469 202.84375 243.128906 202.113281 L 240.429688 200.539062 C 240.332031 200.488281 240.257812 200.394531 240.257812 200.289062 L 240.257812 188.914062 C 240.257812 188.804688 240.332031 188.695312 240.429688 188.640625 L 250.351562 182.964844 C 250.445312 182.910156 250.554688 182.910156 250.648438 182.964844 L 260.570312 188.640625 C 260.667969 188.699219 260.742188 188.800781 260.742188 188.914062 L 260.742188 200.289062 C 260.742188 200.398438 260.6875 200.507812 260.59375 200.5625 L 250.648438 206.238281 C 250.558594 206.289062 250.441406 206.289062 250.351562 206.238281 L 247.796875 204.730469 C 247.722656 204.6875 247.617188 204.691406 247.542969 204.730469 C 246.839844 205.128906 246.707031 205.171875 246.046875 205.402344 C 245.882812 205.457031 245.632812 205.542969 246.128906 205.820312 L 249.464844 207.769531 C 249.785156 207.953125 250.136719 208.042969 250.5 208.042969 C 250.871094 208.042969 251.21875 207.957031 251.535156 207.769531 L 261.480469 202.09375 C 262.125 201.722656 262.515625 201.03125 262.515625 200.292969 L 262.515625 188.917969 C 262.515625 188.179688 262.125 187.484375 261.480469 187.113281 L 251.535156 181.417969 C 251.222656 181.242188 250.867188 181.164062 250.5 181.164062 Z M 253.15625 189.289062 C 250.324219 189.289062 248.640625 190.484375 248.640625 192.472656 C 248.640625 194.628906 250.3125 195.222656 253.03125 195.488281 C 256.28125 195.804688 256.535156 196.277344 256.535156 196.914062 C 256.535156 198.015625 255.652344 198.484375 253.558594 198.484375 C 250.929688 198.484375 250.351562 197.835938 250.160156 196.535156 C 250.136719 196.394531 250.027344 196.285156 249.886719 196.285156 L 248.59375 196.285156 C 248.511719 196.285156 248.445312 196.3125 248.386719 196.371094 C 248.328125 196.429688 248.300781 196.496094 248.296875 196.578125 C 248.296875 198.238281 249.207031 200.199219 253.554688 200.199219 C 256.703125 200.199219 258.519531 198.976562 258.519531 196.828125 C 258.519531 194.703125 257.050781 194.128906 254 193.726562 C 250.917969 193.320312 250.621094 193.125 250.621094 192.40625 C 250.621094 191.816406 250.871094 191.023438 253.15625 191.023438 C 255.195312 191.023438 255.949219 191.460938 256.257812 192.824219 C 256.285156 192.953125 256.398438 193.058594 256.535156 193.058594 L 257.824219 193.058594 C 257.902344 193.058594 257.980469 193.011719 258.035156 192.953125 C 258.089844 192.894531 258.128906 192.824219 258.121094 192.746094 C 257.921875 190.394531 256.339844 189.289062 253.160156 189.289062 Z M 253.15625 189.289062 " fill-opacity="1" fill-rule="nonzero"/></g><g clip-path="url(#dbdc6c19e7)"><path fill="#404137" d="M 192.027344 166.25 C 191.917969 166.25 191.8125 166.277344 191.710938 166.332031 C 191.503906 166.453125 191.398438 166.636719 191.394531 166.878906 L 191.394531 182.902344 C 191.394531 183.058594 191.320312 183.199219 191.183594 183.28125 C 191.035156 183.367188 190.890625 183.367188 190.742188 183.28125 L 188.101562 181.773438 C 187.679688 181.53125 187.257812 181.53125 186.835938 181.773438 L 176.300781 187.804688 C 175.90625 188.03125 175.664062 188.464844 175.664062 188.914062 L 175.664062 200.980469 C 175.664062 201.464844 175.875 201.828125 176.300781 202.070312 L 186.835938 208.105469 C 187.257812 208.347656 187.679688 208.347656 188.101562 208.105469 L 198.640625 202.070312 C 199.0625 201.828125 199.273438 201.464844 199.273438 200.980469 L 199.273438 170.898438 C 199.273438 170.441406 199.019531 170.011719 198.617188 169.789062 L 192.347656 166.308594 C 192.246094 166.253906 192.136719 166.246094 192.03125 166.246094 Z M 124.25 181.3125 C 124.046875 181.320312 123.859375 181.351562 123.679688 181.457031 L 113.144531 187.492188 C 112.71875 187.730469 112.507812 188.09375 112.511719 188.578125 L 112.53125 204.773438 C 112.53125 205 112.648438 205.207031 112.847656 205.316406 C 113.042969 205.433594 113.285156 205.433594 113.480469 205.316406 L 119.730469 201.757812 C 120.128906 201.523438 120.386719 201.117188 120.386719 200.667969 L 120.386719 193.105469 C 120.386719 192.652344 120.625 192.238281 121.019531 192.015625 L 123.679688 190.484375 C 123.875 190.375 124.085938 190.316406 124.3125 190.320312 C 124.539062 190.316406 124.75 190.371094 124.949219 190.484375 L 127.605469 192.015625 C 128 192.238281 128.238281 192.652344 128.238281 193.101562 L 128.238281 200.664062 C 128.238281 201.117188 128.503906 201.523438 128.894531 201.753906 L 135.144531 205.316406 C 135.339844 205.433594 135.582031 205.433594 135.777344 205.316406 C 135.972656 205.207031 136.09375 204.996094 136.09375 204.773438 L 136.117188 188.578125 C 136.117188 188.09375 135.90625 187.730469 135.484375 187.488281 L 124.945312 181.457031 C 124.769531 181.355469 124.578125 181.320312 124.375 181.3125 Z M 218.929688 181.457031 C 218.703125 181.457031 218.492188 181.511719 218.296875 181.625 L 207.757812 187.660156 C 207.367188 187.882812 207.125 188.296875 207.125 188.746094 L 207.125 200.8125 C 207.125 201.265625 207.382812 201.679688 207.777344 201.902344 L 218.230469 207.8125 C 218.617188 208.03125 219.089844 208.046875 219.476562 207.832031 L 225.8125 204.335938 C 226.011719 204.222656 226.148438 204.015625 226.148438 203.789062 C 226.148438 203.5625 226.03125 203.359375 225.832031 203.246094 L 215.230469 197.210938 C 215.035156 197.101562 214.894531 196.871094 214.894531 196.648438 L 214.894531 192.875 C 214.894531 192.648438 215.035156 192.441406 215.230469 192.328125 L 218.527344 190.445312 C 218.722656 190.332031 218.960938 190.332031 219.160156 190.445312 L 222.460938 192.328125 C 222.671875 192.449219 222.777344 192.632812 222.777344 192.875 L 222.777344 195.847656 C 222.777344 196.089844 222.882812 196.273438 223.09375 196.394531 C 223.292969 196.503906 223.53125 196.507812 223.726562 196.394531 L 230.039062 192.746094 C 230.433594 192.523438 230.675781 192.109375 230.675781 191.660156 L 230.675781 188.746094 C 230.675781 188.261719 230.464844 187.898438 230.042969 187.65625 L 219.566406 181.625 C 219.371094 181.511719 219.160156 181.457031 218.933594 181.457031 Z M 187.425781 190.464844 C 187.484375 190.464844 187.539062 190.480469 187.59375 190.507812 L 191.203125 192.582031 C 191.300781 192.636719 191.375 192.742188 191.375 192.851562 L 191.375 197 C 191.375 197.113281 191.304688 197.21875 191.203125 197.273438 L 187.59375 199.347656 C 187.496094 199.402344 187.375 199.402344 187.277344 199.347656 L 183.667969 197.273438 C 183.566406 197.21875 183.496094 197.113281 183.496094 197 L 183.496094 192.855469 C 183.496094 192.742188 183.566406 192.640625 183.667969 192.582031 L 187.277344 190.507812 C 187.324219 190.480469 187.371094 190.46875 187.425781 190.46875 Z M 187.425781 190.464844 " fill-opacity="1" fill-rule="nonzero"/></g><g clip-path="url(#ba715d6935)"><path fill="#83cd29" d="M 155.898438 181.394531 C 155.671875 181.394531 155.460938 181.449219 155.265625 181.5625 L 144.730469 187.574219 C 144.335938 187.800781 144.097656 188.234375 144.097656 188.683594 L 144.097656 200.75 C 144.09375 201.234375 144.304688 201.597656 144.730469 201.839844 L 155.265625 207.871094 C 155.6875 208.117188 156.109375 208.117188 156.53125 207.871094 L 167.070312 201.839844 C 167.492188 201.597656 167.703125 201.234375 167.703125 200.75 L 167.703125 188.683594 C 167.703125 188.234375 167.464844 187.800781 167.070312 187.574219 L 156.53125 181.5625 C 156.335938 181.449219 156.125 181.394531 155.898438 181.394531 Z M 218.90625 192.160156 C 218.867188 192.160156 218.820312 192.160156 218.78125 192.183594 L 216.753906 193.355469 C 216.671875 193.402344 216.628906 193.472656 216.628906 193.566406 L 216.628906 195.871094 C 216.628906 195.957031 216.679688 196.035156 216.753906 196.078125 L 218.78125 197.230469 C 218.859375 197.277344 218.9375 197.277344 219.011719 197.230469 L 221.039062 196.078125 C 221.113281 196.035156 221.167969 195.957031 221.167969 195.871094 L 221.167969 193.566406 C 221.167969 193.476562 221.117188 193.398438 221.039062 193.355469 L 219.011719 192.183594 C 218.976562 192.160156 218.949219 192.160156 218.90625 192.160156 Z M 218.90625 192.160156 " fill-opacity="1" fill-rule="nonzero"/></g></svg>