<svg xmlns="http://www.w3.org/2000/svg" xmlns:xlink="http://www.w3.org/1999/xlink" width="500" zoomAndPan="magnify" viewBox="0 0 375 374.999991" height="500" preserveAspectRatio="xMidYMid meet" version="1.0"><defs><clipPath id="bac68e6d86"><path d="M 112.5 157.03125 L 262.5 157.03125 L 262.5 217.78125 L 112.5 217.78125 Z M 112.5 157.03125 " clip-rule="nonzero"/></clipPath></defs><g clip-path="url(#bac68e6d86)"><path fill="#000000" d="M 112.5 157.03125 L 112.5 208.433594 L 154.6875 208.433594 L 154.6875 217.78125 L 187.5 217.78125 L 187.5 208.433594 L 262.5 208.433594 L 262.5 157.03125 Z M 120.832031 165.335938 L 154.175781 165.335938 L 154.175781 201.167969 L 145.835938 201.167969 L 145.835938 173.652344 L 137.503906 173.652344 L 137.503906 201.167969 L 120.832031 201.167969 Z M 162.507812 165.335938 L 195.839844 165.335938 L 195.839844 201.160156 L 179.167969 201.160156 L 179.167969 209.476562 L 162.507812 209.476562 Z M 204.171875 165.335938 L 254.179688 165.335938 L 254.179688 201.167969 L 245.835938 201.167969 L 245.835938 173.652344 L 237.507812 173.652344 L 237.507812 201.167969 L 229.175781 201.167969 L 229.175781 173.652344 L 220.835938 173.652344 L 220.835938 201.167969 L 204.171875 201.167969 Z M 179.167969 173.652344 L 179.167969 192.863281 L 187.5 192.863281 L 187.5 173.652344 Z M 179.167969 173.652344 " fill-opacity="1" fill-rule="nonzero"/></g></svg>