<svg xmlns="http://www.w3.org/2000/svg" xmlns:xlink="http://www.w3.org/1999/xlink" width="500" zoomAndPan="magnify" viewBox="0 0 375 374.999991" height="500" preserveAspectRatio="xMidYMid meet" version="1.0"><defs><clipPath id="1681651a83"><path d="M 112.5 112.5 L 262.5 112.5 L 262.5 262.5 L 112.5 262.5 Z M 112.5 112.5 " clip-rule="nonzero"/></clipPath></defs><path fill="#0097b2" d="M 187.5 170.875 C 178.34375 170.875 170.875 178.34375 170.875 187.5 C 170.875 196.65625 178.34375 204.125 187.5 204.125 C 196.65625 204.125 204.125 196.65625 204.125 187.5 C 204.125 178.34375 196.65625 170.875 187.5 170.875 Z M 187.5 170.875 " fill-opacity="1" fill-rule="nonzero"/><path fill="#0097b2" d="M 209.835938 146.722656 L 165.164062 146.722656 C 155.03125 146.722656 146.722656 154.96875 146.722656 165.164062 L 146.722656 209.835938 C 146.722656 219.96875 154.96875 228.277344 165.164062 228.277344 L 209.835938 228.277344 C 219.96875 228.277344 228.277344 220.03125 228.277344 209.835938 L 228.277344 165.164062 C 228.214844 154.96875 219.96875 146.722656 209.835938 146.722656 Z M 187.5 212.5 C 173.667969 212.5 162.433594 201.265625 162.433594 187.433594 C 162.433594 173.605469 173.667969 162.371094 187.5 162.371094 C 201.332031 162.371094 212.566406 173.605469 212.566406 187.433594 C 212.5 201.265625 201.265625 212.5 187.5 212.5 Z M 214.316406 166.589844 C 211.007812 166.589844 208.277344 163.863281 208.277344 160.550781 C 208.277344 157.242188 211.007812 154.511719 214.316406 154.511719 C 217.628906 154.511719 220.355469 157.242188 220.355469 160.550781 C 220.355469 163.929688 217.695312 166.589844 214.316406 166.589844 Z M 214.316406 166.589844 " fill-opacity="1" fill-rule="nonzero"/><g clip-path="url(#1681651a83)"><path fill="#0097b2" d="M 187.5 112.5 C 146.070312 112.5 112.5 146.070312 112.5 187.5 C 112.5 228.929688 146.070312 262.5 187.5 262.5 C 228.929688 262.5 262.5 228.929688 262.5 187.5 C 262.433594 146.070312 228.863281 112.5 187.5 112.5 Z M 236.65625 209.835938 C 236.65625 224.644531 224.578125 236.722656 209.773438 236.722656 L 165.164062 236.722656 C 150.355469 236.722656 138.277344 224.644531 138.277344 209.835938 L 138.277344 165.164062 C 138.277344 150.355469 150.355469 138.277344 165.164062 138.277344 L 209.835938 138.277344 C 224.644531 138.277344 236.722656 150.355469 236.722656 165.164062 L 236.722656 209.835938 Z M 236.65625 209.835938 " fill-opacity="1" fill-rule="nonzero"/></g></svg>