<svg xmlns="http://www.w3.org/2000/svg" xmlns:xlink="http://www.w3.org/1999/xlink" width="500" zoomAndPan="magnify" viewBox="0 0 375 374.999991" height="500" preserveAspectRatio="xMidYMid meet" version="1.0"><defs><clipPath id="1c7c60c61e"><path d="M 112.5 112.5 L 262.5 112.5 L 262.5 262.5 L 112.5 262.5 Z M 112.5 112.5 " clip-rule="nonzero"/></clipPath></defs><g clip-path="url(#1c7c60c61e)"><path fill="#f7df1e" d="M 112.5 112.5 L 262.5 112.5 L 262.5 262.5 L 112.5 262.5 Z M 112.5 112.5 " fill-opacity="1" fill-rule="nonzero"/></g><path fill="#000000" d="M 151.941406 237.847656 L 163.417969 230.90625 C 165.632812 234.832031 167.648438 238.152344 172.480469 238.152344 C 177.109375 238.152344 180.035156 236.335938 180.035156 229.292969 L 180.035156 181.363281 L 194.125 181.363281 L 194.125 229.492188 C 194.125 244.089844 185.570312 250.738281 173.085938 250.738281 C 161.808594 250.738281 155.261719 244.898438 151.941406 237.847656 " fill-opacity="1" fill-rule="nonzero"/><path fill="#000000" d="M 201.785156 236.335938 L 213.261719 229.691406 C 216.285156 234.625 220.210938 238.253906 227.15625 238.253906 C 232.996094 238.253906 236.722656 235.335938 236.722656 231.304688 C 236.722656 226.46875 232.898438 224.757812 226.453125 221.941406 L 222.929688 220.429688 C 212.757812 216.097656 206.015625 210.667969 206.015625 199.183594 C 206.015625 188.613281 214.066406 180.554688 226.65625 180.554688 C 235.617188 180.554688 242.0625 183.679688 246.691406 191.835938 L 235.714844 198.886719 C 233.300781 194.554688 230.683594 192.84375 226.65625 192.84375 C 222.527344 192.84375 219.90625 195.464844 219.90625 198.886719 C 219.90625 203.117188 222.527344 204.828125 228.566406 207.445312 L 232.089844 208.953125 C 244.070312 214.089844 250.820312 219.324219 250.820312 231.105469 C 250.820312 243.789062 240.855469 250.738281 227.460938 250.738281 C 214.371094 250.738281 205.914062 244.492188 201.785156 236.335938 " fill-opacity="1" fill-rule="nonzero"/></svg>