<svg xmlns="http://www.w3.org/2000/svg" xmlns:xlink="http://www.w3.org/1999/xlink" width="500" zoomAndPan="magnify" viewBox="0 0 375 374.999991" height="500" preserveAspectRatio="xMidYMid meet" version="1.0"><defs><clipPath id="86aba2b5c3"><path d="M 169 156 L 261 156 L 261 251.6875 L 169 251.6875 Z M 169 156 " clip-rule="nonzero"/></clipPath></defs><path fill="#6c4eb0" d="M 166.382812 133.347656 C 171.730469 126.585938 181.808594 123.246094 188.679688 123.074219 C 207.941406 122.703125 215.96875 146.960938 216.589844 156.601562 L 225.507812 159.304688 C 223.453125 129.746094 205.269531 114.238281 187.867188 114.238281 C 171.554688 114.234375 156.488281 126.222656 150.417969 143.800781 C 142.125 167.234375 147.566406 189.761719 157.730469 207.792969 C 156.84375 208.964844 156.308594 211.03125 156.488281 213.011719 C 156.660156 218.425781 161.207031 222.929688 166.65625 222.929688 L 167.011719 222.929688 C 172.71875 222.75 177.089844 217.976562 176.820312 212.292969 C 176.820312 206.882812 172.183594 202.386719 166.742188 202.386719 L 166.382812 202.386719 C 166.023438 202.386719 165.492188 202.386719 165.042969 202.5625 C 157.644531 189.941406 154.519531 176.417969 155.683594 161.828125 C 156.394531 150.828125 159.964844 141.273438 166.382812 133.347656 Z M 166.382812 133.347656 " fill-opacity="1" fill-rule="nonzero"/><path fill="#6c4eb0" d="M 123.40625 235.648438 C 129.382812 244.660156 141.601562 250.425781 154.976562 250.425781 C 158.542969 250.425781 162.292969 250.160156 165.945312 249.257812 C 189.136719 244.75 206.707031 230.691406 216.785156 209.964844 L 216.867188 209.78125 C 222.042969 209.328125 226.054688 204.726562 225.792969 199.226562 C 225.519531 193.726562 221.058594 189.316406 215.625 189.316406 L 215.261719 189.316406 C 209.648438 189.5 205.273438 194.273438 205.453125 199.960938 C 205.632812 202.839844 206.796875 205.1875 208.394531 206.894531 C 202.15625 219.15625 192.792969 228.160156 178.605469 235.738281 C 169.066406 240.78125 158.988281 242.679688 149.179688 241.328125 C 140.976562 240.160156 134.558594 236.453125 130.632812 230.511719 C 124.75 221.496094 124.214844 211.769531 129.113281 202.035156 C 132.691406 195.007812 138.035156 189.871094 141.605469 187.339844 C 140.714844 185 139.644531 181.035156 139.105469 178.066406 C 112.695312 197.167969 115.382812 223.300781 123.40625 235.648438 Z M 123.40625 235.648438 " fill-opacity="1" fill-rule="nonzero"/><g clip-path="url(#86aba2b5c3)"><path fill="#6c4eb0" d="M 257.53125 231.675781 C 262.875 220.859375 262.433594 202.65625 248.785156 187.0625 L 248.703125 187.238281 C 234.886719 170.835938 214.546875 161.824219 191.351562 161.824219 L 188.316406 161.824219 C 186.808594 158.488281 183.332031 156.410156 179.40625 156.410156 L 179.136719 156.410156 C 173.523438 156.410156 169.148438 161.285156 169.332031 166.960938 C 169.511719 172.363281 174.058594 176.875 179.5 176.875 L 179.941406 176.875 C 183.957031 176.699219 187.433594 174.167969 188.855469 170.566406 L 192.160156 170.566406 C 205.90625 170.566406 218.917969 174.621094 230.785156 182.550781 C 239.875 188.589844 246.394531 196.519531 250.046875 205.984375 C 253.25 213.734375 253.078125 221.304688 249.78125 227.621094 C 244.695312 237.53125 236.132812 242.761719 224.808594 242.761719 C 217.671875 242.761719 210.71875 240.507812 207.148438 238.886719 C 205.011719 240.679688 201.441406 243.65625 198.851562 245.464844 C 206.695312 249.0625 214.636719 251.136719 222.304688 251.136719 C 239.695312 251.136719 252.617188 241.234375 257.53125 231.675781 Z M 257.53125 231.675781 " fill-opacity="1" fill-rule="nonzero"/></g></svg>