<svg xmlns="http://www.w3.org/2000/svg" xmlns:xlink="http://www.w3.org/1999/xlink" width="500" zoomAndPan="magnify" viewBox="0 0 375 374.999991" height="500" preserveAspectRatio="xMidYMid meet" version="1.0"><defs><clipPath id="b09334c5db"><path d="M 113 132 L 262.5 132 L 262.5 245 L 113 245 Z M 113 132 " clip-rule="nonzero"/></clipPath></defs><g clip-path="url(#b09334c5db)"><path fill="#f06292" d="M 241.394531 196.664062 C 236.1875 196.691406 231.675781 197.9375 227.898438 199.804688 C 226.515625 197.046875 225.113281 194.617188 224.882812 192.8125 C 224.605469 190.707031 224.289062 189.445312 224.621094 186.9375 C 224.953125 184.429688 226.40625 180.875 226.386719 180.605469 C 226.363281 180.339844 226.058594 179.0625 223.054688 179.039062 C 220.054688 179.019531 217.484375 179.617188 217.183594 180.410156 C 216.878906 181.203125 216.300781 182.988281 215.941406 184.847656 C 215.417969 187.570312 209.945312 197.285156 206.839844 202.363281 C 205.824219 200.378906 204.960938 198.632812 204.78125 197.25 C 204.507812 195.144531 204.191406 193.886719 204.519531 191.378906 C 204.851562 188.867188 206.304688 185.3125 206.285156 185.046875 C 206.265625 184.777344 205.960938 183.5 202.957031 183.476562 C 199.953125 183.457031 197.382812 184.054688 197.082031 184.847656 C 196.78125 185.640625 196.457031 187.492188 195.84375 189.289062 C 195.226562 191.078125 187.957031 207.28125 186.050781 211.484375 C 185.078125 213.621094 184.234375 215.34375 183.640625 216.515625 C 183.636719 216.511719 183.636719 216.507812 183.636719 216.507812 C 183.636719 216.507812 183.597656 216.585938 183.539062 216.71875 C 183.027344 217.714844 182.726562 218.269531 182.726562 218.269531 C 182.726562 218.269531 182.730469 218.273438 182.734375 218.289062 C 182.328125 219.023438 181.894531 219.703125 181.683594 219.703125 C 181.535156 219.703125 181.234375 217.75 181.746094 215.070312 C 182.832031 209.449219 185.429688 200.683594 185.402344 200.378906 C 185.390625 200.222656 185.886719 198.699219 183.707031 197.898438 C 181.589844 197.121094 180.832031 198.417969 180.640625 198.417969 C 180.453125 198.421875 180.316406 198.878906 180.316406 198.878906 C 180.316406 198.878906 182.675781 189.019531 175.8125 189.019531 C 171.519531 189.019531 165.570312 193.714844 162.644531 197.972656 C 160.792969 198.980469 156.835938 201.140625 152.640625 203.449219 C 151.03125 204.335938 149.382812 205.238281 147.824219 206.097656 C 147.71875 205.980469 147.609375 205.867188 147.5 205.746094 C 139.175781 196.867188 123.789062 190.585938 124.4375 178.640625 C 124.675781 174.300781 126.1875 162.871094 154.007812 149.007812 C 176.800781 137.652344 195.046875 140.777344 198.199219 147.699219 C 202.703125 157.597656 188.449219 175.988281 164.78125 178.640625 C 155.761719 179.65625 151.011719 176.15625 149.832031 174.855469 C 148.589844 173.484375 148.402344 173.425781 147.9375 173.683594 C 147.183594 174.101562 147.660156 175.308594 147.9375 176.03125 C 148.644531 177.871094 151.542969 181.132812 156.488281 182.757812 C 160.839844 184.183594 171.425781 184.96875 184.230469 180.011719 C 198.570312 174.46875 209.769531 159.035156 206.480469 146.136719 C 203.132812 133.019531 181.382812 128.707031 160.792969 136.019531 C 148.527344 140.375 135.265625 147.207031 125.726562 156.125 C 114.386719 166.730469 112.578125 175.964844 113.324219 179.820312 C 115.96875 193.527344 134.859375 202.453125 142.425781 209.066406 C 142.054688 209.273438 141.699219 209.464844 141.382812 209.640625 C 137.589844 211.515625 123.191406 219.054688 119.585938 227.015625 C 115.5 236.046875 120.238281 242.527344 123.371094 243.398438 C 133.085938 246.101562 143.054688 241.238281 148.414062 233.25 C 153.773438 225.261719 153.117188 214.855469 150.660156 210.109375 C 150.628906 210.050781 150.597656 209.992188 150.566406 209.933594 C 151.542969 209.351562 152.542969 208.765625 153.53125 208.183594 C 155.460938 207.046875 157.359375 205.992188 159 205.097656 C 158.078125 207.617188 157.40625 210.640625 157.054688 215.003906 C 156.644531 220.132812 158.746094 226.757812 161.496094 229.363281 C 162.707031 230.511719 164.164062 230.539062 165.085938 230.539062 C 168.285156 230.539062 169.742188 227.878906 171.351562 224.730469 C 173.324219 220.867188 175.074219 216.371094 175.074219 216.371094 C 175.074219 216.371094 172.878906 228.515625 178.859375 228.515625 C 181.039062 228.515625 183.230469 225.6875 184.207031 224.25 C 184.210938 224.265625 184.210938 224.273438 184.210938 224.273438 C 184.210938 224.273438 184.269531 224.175781 184.382812 223.992188 C 184.609375 223.644531 184.738281 223.425781 184.738281 223.425781 C 184.738281 223.425781 184.742188 223.402344 184.746094 223.359375 C 185.625 221.839844 187.566406 218.375 190.480469 212.65625 C 194.246094 205.265625 197.855469 196.007812 197.855469 196.007812 C 197.855469 196.007812 198.191406 198.269531 199.289062 202.015625 C 199.9375 204.214844 201.3125 206.652344 202.398438 208.988281 C 201.523438 210.199219 200.988281 210.894531 200.988281 210.894531 C 200.988281 210.894531 200.992188 210.90625 201.003906 210.929688 C 200.304688 211.859375 199.523438 212.859375 198.703125 213.832031 C 195.730469 217.371094 192.191406 221.414062 191.71875 222.578125 C 191.160156 223.953125 191.292969 224.960938 192.371094 225.777344 C 193.160156 226.371094 194.5625 226.464844 196.03125 226.367188 C 198.699219 226.1875 200.578125 225.523438 201.503906 225.121094 C 202.949219 224.609375 204.632812 223.808594 206.210938 222.648438 C 209.125 220.503906 210.882812 217.4375 210.714844 213.375 C 210.621094 211.136719 209.910156 208.917969 209.003906 206.828125 C 209.269531 206.449219 209.53125 206.0625 209.800781 205.675781 C 214.394531 198.957031 217.960938 191.578125 217.960938 191.578125 C 217.960938 191.578125 218.296875 193.839844 219.394531 197.582031 C 219.953125 199.476562 221.050781 201.546875 222.039062 203.570312 C 217.71875 207.082031 215.042969 211.160156 214.109375 213.835938 C 212.390625 218.785156 213.738281 221.027344 216.265625 221.539062 C 217.410156 221.769531 219.027344 221.246094 220.242188 220.730469 C 221.757812 220.230469 223.574219 219.394531 225.273438 218.144531 C 228.191406 216 230.992188 213 230.824219 208.941406 C 230.746094 207.089844 230.246094 205.257812 229.5625 203.496094 C 233.226562 201.96875 237.96875 201.121094 244.007812 201.824219 C 256.96875 203.339844 259.507812 211.429688 259.023438 214.816406 C 258.535156 218.199219 255.820312 220.0625 254.910156 220.625 C 254 221.1875 253.722656 221.382812 253.796875 221.800781 C 253.910156 222.40625 254.328125 222.386719 255.105469 222.253906 C 256.171875 222.074219 261.90625 219.5 262.15625 213.25 C 262.460938 205.308594 254.859375 196.589844 241.394531 196.664062 Z M 141.519531 230.332031 C 137.222656 235.015625 131.230469 236.785156 128.65625 235.292969 C 125.882812 233.683594 126.980469 226.792969 132.246094 221.820312 C 135.457031 218.792969 139.601562 216.003906 142.351562 214.285156 C 142.976562 213.910156 143.894531 213.359375 145.011719 212.6875 C 145.199219 212.582031 145.304688 212.527344 145.304688 212.527344 L 145.300781 212.519531 C 145.515625 212.390625 145.738281 212.257812 145.964844 212.121094 C 147.882812 219.191406 146.023438 225.417969 141.519531 230.332031 Z M 172.789062 209.078125 C 171.292969 212.722656 168.164062 222.046875 166.257812 221.546875 C 164.625 221.117188 163.628906 214.03125 165.933594 207.054688 C 167.09375 203.542969 169.570312 199.347656 171.027344 197.71875 C 173.371094 195.097656 175.949219 194.242188 176.578125 195.304688 C 177.371094 196.660156 173.726562 206.792969 172.789062 209.078125 Z M 198.621094 221.402344 C 197.988281 221.734375 197.402344 221.941406 197.136719 221.785156 C 196.9375 221.664062 197.398438 221.226562 197.398438 221.226562 C 197.398438 221.226562 200.628906 217.75 201.902344 216.167969 C 202.640625 215.25 203.5 214.15625 204.433594 212.9375 C 204.441406 213.058594 204.445312 213.179688 204.445312 213.296875 C 204.4375 217.460938 200.414062 220.273438 198.621094 221.402344 Z M 218.519531 216.867188 C 218.046875 216.53125 218.125 215.445312 219.679688 212.054688 C 220.289062 210.722656 221.683594 208.488281 224.101562 206.347656 C 224.382812 207.226562 224.554688 208.070312 224.550781 208.855469 C 224.519531 214.097656 220.78125 216.054688 218.519531 216.867188 Z M 218.519531 216.867188 " fill-opacity="1" fill-rule="nonzero"/></g></svg>