<svg xmlns="http://www.w3.org/2000/svg" xmlns:xlink="http://www.w3.org/1999/xlink" width="500" zoomAndPan="magnify" viewBox="0 0 375 374.999991" height="500" preserveAspectRatio="xMidYMid meet" version="1.0"><defs><clipPath id="41eace04ed"><path d="M 112.5 112.5 L 262.5 112.5 L 262.5 262.5 L 112.5 262.5 Z M 112.5 112.5 " clip-rule="nonzero"/></clipPath><clipPath id="ead04d1bf1"><path d="M 136.476562 112.308594 L 237.882812 112.308594 C 238.675781 112.308594 239.464844 112.347656 240.253906 112.425781 C 241.042969 112.503906 241.828125 112.617188 242.605469 112.773438 C 243.382812 112.925781 244.148438 113.121094 244.90625 113.347656 C 245.667969 113.578125 246.410156 113.84375 247.144531 114.148438 C 247.875 114.449219 248.59375 114.789062 249.289062 115.160156 C 249.988281 115.535156 250.667969 115.941406 251.328125 116.378906 C 251.988281 116.820312 252.621094 117.292969 253.234375 117.792969 C 253.847656 118.296875 254.433594 118.824219 254.996094 119.386719 C 255.554688 119.945312 256.085938 120.53125 256.589844 121.140625 C 257.09375 121.753906 257.5625 122.390625 258.003906 123.046875 C 258.445312 123.703125 258.851562 124.382812 259.226562 125.082031 C 259.597656 125.777344 259.9375 126.492188 260.242188 127.222656 C 260.542969 127.953125 260.8125 128.699219 261.039062 129.457031 C 261.269531 130.214844 261.464844 130.980469 261.617188 131.757812 C 261.773438 132.53125 261.890625 133.3125 261.964844 134.101562 C 262.042969 134.890625 262.082031 135.679688 262.082031 136.46875 L 262.082031 238.335938 C 262.082031 239.125 262.042969 239.914062 261.964844 240.703125 C 261.890625 241.492188 261.773438 242.273438 261.617188 243.046875 C 261.464844 243.824219 261.269531 244.589844 261.039062 245.347656 C 260.8125 246.105469 260.542969 246.851562 260.242188 247.582031 C 259.9375 248.3125 259.597656 249.027344 259.226562 249.722656 C 258.851562 250.421875 258.445312 251.101562 258.003906 251.757812 C 257.5625 252.414062 257.09375 253.050781 256.589844 253.664062 C 256.085938 254.273438 255.554688 254.859375 254.996094 255.417969 C 254.433594 255.980469 253.847656 256.507812 253.234375 257.011719 C 252.621094 257.511719 251.988281 257.984375 251.328125 258.421875 C 250.667969 258.863281 249.988281 259.269531 249.289062 259.644531 C 248.59375 260.015625 247.875 260.355469 247.144531 260.65625 C 246.410156 260.960938 245.667969 261.226562 244.910156 261.453125 C 244.148438 261.683594 243.382812 261.875 242.605469 262.03125 C 241.828125 262.1875 241.042969 262.300781 240.253906 262.378906 C 239.464844 262.457031 238.675781 262.496094 237.882812 262.496094 L 136.476562 262.496094 C 135.683594 262.496094 134.890625 262.457031 134.101562 262.378906 C 133.3125 262.300781 132.53125 262.1875 131.753906 262.03125 C 130.976562 261.875 130.207031 261.683594 129.449219 261.457031 C 128.691406 261.226562 127.945312 260.960938 127.214844 260.65625 C 126.480469 260.355469 125.765625 260.015625 125.066406 259.644531 C 124.367188 259.269531 123.6875 258.863281 123.03125 258.421875 C 122.371094 257.984375 121.734375 257.511719 121.121094 257.011719 C 120.511719 256.507812 119.921875 255.980469 119.363281 255.417969 C 118.804688 254.859375 118.269531 254.273438 117.769531 253.664062 C 117.265625 253.050781 116.792969 252.414062 116.355469 251.757812 C 115.914062 251.101562 115.507812 250.421875 115.132812 249.722656 C 114.757812 249.027344 114.421875 248.3125 114.117188 247.582031 C 113.8125 246.851562 113.546875 246.105469 113.316406 245.347656 C 113.085938 244.589844 112.894531 243.824219 112.742188 243.046875 C 112.585938 242.273438 112.46875 241.492188 112.390625 240.703125 C 112.3125 239.914062 112.277344 239.125 112.277344 238.335938 L 112.277344 136.46875 C 112.277344 135.679688 112.3125 134.890625 112.390625 134.101562 C 112.46875 133.3125 112.585938 132.53125 112.742188 131.757812 C 112.894531 130.980469 113.085938 130.214844 113.316406 129.457031 C 113.546875 128.699219 113.8125 127.953125 114.117188 127.222656 C 114.421875 126.492188 114.757812 125.777344 115.132812 125.082031 C 115.507812 124.382812 115.914062 123.703125 116.355469 123.046875 C 116.792969 122.390625 117.265625 121.753906 117.769531 121.140625 C 118.269531 120.53125 118.804688 119.945312 119.363281 119.386719 C 119.921875 118.824219 120.511719 118.296875 121.121094 117.792969 C 121.734375 117.292969 122.371094 116.820312 123.03125 116.378906 C 123.691406 115.941406 124.367188 115.535156 125.066406 115.160156 C 125.765625 114.789062 126.480469 114.449219 127.214844 114.148438 C 127.945312 113.84375 128.691406 113.578125 129.449219 113.347656 C 130.207031 113.121094 130.976562 112.925781 131.753906 112.773438 C 132.53125 112.617188 133.3125 112.503906 134.101562 112.425781 C 134.890625 112.347656 135.683594 112.308594 136.476562 112.308594 Z M 136.476562 112.308594 " clip-rule="nonzero"/></clipPath><linearGradient x1="255.753655" gradientTransform="matrix(1.170188, 0, 0, 1.168313, -186.403111, -384.609361)" y1="554.196326" x2="382.744504" gradientUnits="userSpaceOnUse" y2="424.986843" id="32b9541f01"><stop stop-opacity="1" stop-color="rgb(2.69928%, 0.39978%, 20.799255%)" offset="0"/><stop stop-opacity="1" stop-color="rgb(2.867126%, 0.480652%, 20.849609%)" offset="0.0625"/><stop stop-opacity="1" stop-color="rgb(3.189087%, 0.637817%, 20.94574%)" offset="0.0703125"/><stop stop-opacity="1" stop-color="rgb(3.500366%, 0.788879%, 21.038818%)" offset="0.078125"/><stop stop-opacity="1" stop-color="rgb(3.81012%, 0.939941%, 21.131897%)" offset="0.0859375"/><stop stop-opacity="1" stop-color="rgb(4.121399%, 1.091003%, 21.224976%)" offset="0.09375"/><stop stop-opacity="1" stop-color="rgb(4.431152%, 1.243591%, 21.31958%)" offset="0.101563"/><stop stop-opacity="1" stop-color="rgb(4.742432%, 1.394653%, 21.412659%)" offset="0.109375"/><stop stop-opacity="1" stop-color="rgb(5.052185%, 1.545715%, 21.505737%)" offset="0.117188"/><stop stop-opacity="1" stop-color="rgb(5.363464%, 1.696777%, 21.598816%)" offset="0.125"/><stop stop-opacity="1" stop-color="rgb(5.674744%, 1.847839%, 21.691895%)" offset="0.132812"/><stop stop-opacity="1" stop-color="rgb(5.984497%, 1.998901%, 21.784973%)" offset="0.140625"/><stop stop-opacity="1" stop-color="rgb(6.295776%, 2.151489%, 21.878052%)" offset="0.148438"/><stop stop-opacity="1" stop-color="rgb(6.60553%, 2.302551%, 21.97113%)" offset="0.15625"/><stop stop-opacity="1" stop-color="rgb(6.916809%, 2.453613%, 22.065735%)" offset="0.164063"/><stop stop-opacity="1" stop-color="rgb(7.226562%, 2.604675%, 22.158813%)" offset="0.171875"/><stop stop-opacity="1" stop-color="rgb(7.537842%, 2.755737%, 22.251892%)" offset="0.179688"/><stop stop-opacity="1" stop-color="rgb(7.847595%, 2.908325%, 22.344971%)" offset="0.1875"/><stop stop-opacity="1" stop-color="rgb(8.158875%, 3.059387%, 22.438049%)" offset="0.195312"/><stop stop-opacity="1" stop-color="rgb(8.468628%, 3.210449%, 22.531128%)" offset="0.203125"/><stop stop-opacity="1" stop-color="rgb(8.779907%, 3.361511%, 22.624207%)" offset="0.210938"/><stop stop-opacity="1" stop-color="rgb(9.091187%, 3.512573%, 22.717285%)" offset="0.21875"/><stop stop-opacity="1" stop-color="rgb(9.40094%, 3.663635%, 22.810364%)" offset="0.226562"/><stop stop-opacity="1" stop-color="rgb(9.712219%, 3.816223%, 22.904968%)" offset="0.234375"/><stop stop-opacity="1" stop-color="rgb(10.021973%, 3.967285%, 22.998047%)" offset="0.242188"/><stop stop-opacity="1" stop-color="rgb(10.333252%, 4.118347%, 23.091125%)" offset="0.25"/><stop stop-opacity="1" stop-color="rgb(10.643005%, 4.269409%, 23.184204%)" offset="0.257813"/><stop stop-opacity="1" stop-color="rgb(10.954285%, 4.420471%, 23.277283%)" offset="0.265625"/><stop stop-opacity="1" stop-color="rgb(11.264038%, 4.571533%, 23.370361%)" offset="0.273438"/><stop stop-opacity="1" stop-color="rgb(11.575317%, 4.724121%, 23.46344%)" offset="0.28125"/><stop stop-opacity="1" stop-color="rgb(11.885071%, 4.875183%, 23.556519%)" offset="0.289062"/><stop stop-opacity="1" stop-color="rgb(12.19635%, 5.026245%, 23.651123%)" offset="0.296875"/><stop stop-opacity="1" stop-color="rgb(12.507629%, 5.177307%, 23.744202%)" offset="0.304688"/><stop stop-opacity="1" stop-color="rgb(12.817383%, 5.328369%, 23.83728%)" offset="0.3125"/><stop stop-opacity="1" stop-color="rgb(13.128662%, 5.480957%, 23.930359%)" offset="0.320313"/><stop stop-opacity="1" stop-color="rgb(13.438416%, 5.632019%, 24.023438%)" offset="0.328125"/><stop stop-opacity="1" stop-color="rgb(13.749695%, 5.783081%, 24.116516%)" offset="0.335938"/><stop stop-opacity="1" stop-color="rgb(14.059448%, 5.934143%, 24.209595%)" offset="0.34375"/><stop stop-opacity="1" stop-color="rgb(14.370728%, 6.085205%, 24.302673%)" offset="0.351563"/><stop stop-opacity="1" stop-color="rgb(14.680481%, 6.236267%, 24.397278%)" offset="0.359375"/><stop stop-opacity="1" stop-color="rgb(14.99176%, 6.388855%, 24.490356%)" offset="0.367188"/><stop stop-opacity="1" stop-color="rgb(15.301514%, 6.539917%, 24.583435%)" offset="0.375"/><stop stop-opacity="1" stop-color="rgb(15.612793%, 6.690979%, 24.676514%)" offset="0.382813"/><stop stop-opacity="1" stop-color="rgb(15.924072%, 6.842041%, 24.769592%)" offset="0.390625"/><stop stop-opacity="1" stop-color="rgb(16.233826%, 6.993103%, 24.862671%)" offset="0.398438"/><stop stop-opacity="1" stop-color="rgb(16.545105%, 7.145691%, 24.95575%)" offset="0.40625"/><stop stop-opacity="1" stop-color="rgb(16.854858%, 7.296753%, 25.048828%)" offset="0.414063"/><stop stop-opacity="1" stop-color="rgb(17.166138%, 7.447815%, 25.143433%)" offset="0.421875"/><stop stop-opacity="1" stop-color="rgb(17.475891%, 7.598877%, 25.236511%)" offset="0.429688"/><stop stop-opacity="1" stop-color="rgb(17.78717%, 7.749939%, 25.32959%)" offset="0.4375"/><stop stop-opacity="1" stop-color="rgb(18.096924%, 7.901001%, 25.422668%)" offset="0.445313"/><stop stop-opacity="1" stop-color="rgb(18.408203%, 8.053589%, 25.515747%)" offset="0.453125"/><stop stop-opacity="1" stop-color="rgb(18.717957%, 8.204651%, 25.608826%)" offset="0.460938"/><stop stop-opacity="1" stop-color="rgb(19.029236%, 8.355713%, 25.701904%)" offset="0.46875"/><stop stop-opacity="1" stop-color="rgb(19.340515%, 8.506775%, 25.794983%)" offset="0.476562"/><stop stop-opacity="1" stop-color="rgb(19.650269%, 8.657837%, 25.888062%)" offset="0.484375"/><stop stop-opacity="1" stop-color="rgb(19.961548%, 8.808899%, 25.982666%)" offset="0.492188"/><stop stop-opacity="1" stop-color="rgb(20.271301%, 8.961487%, 26.075745%)" offset="0.494581"/><stop stop-opacity="1" stop-color="rgb(20.426941%, 9.037781%, 26.123047%)" offset="0.5"/><stop stop-opacity="1" stop-color="rgb(20.582581%, 9.112549%, 26.168823%)" offset="0.505419"/><stop stop-opacity="1" stop-color="rgb(20.73822%, 9.188843%, 26.216125%)" offset="0.507812"/><stop stop-opacity="1" stop-color="rgb(20.892334%, 9.263611%, 26.261902%)" offset="0.515625"/><stop stop-opacity="1" stop-color="rgb(21.203613%, 9.414673%, 26.35498%)" offset="0.523438"/><stop stop-opacity="1" stop-color="rgb(21.513367%, 9.565735%, 26.448059%)" offset="0.53125"/><stop stop-opacity="1" stop-color="rgb(21.824646%, 9.718323%, 26.541138%)" offset="0.539063"/><stop stop-opacity="1" stop-color="rgb(22.134399%, 9.869385%, 26.634216%)" offset="0.546875"/><stop stop-opacity="1" stop-color="rgb(22.445679%, 10.020447%, 26.728821%)" offset="0.554687"/><stop stop-opacity="1" stop-color="rgb(22.756958%, 10.171509%, 26.821899%)" offset="0.5625"/><stop stop-opacity="1" stop-color="rgb(23.066711%, 10.322571%, 26.914978%)" offset="0.570312"/><stop stop-opacity="1" stop-color="rgb(23.377991%, 10.473633%, 27.008057%)" offset="0.578125"/><stop stop-opacity="1" stop-color="rgb(23.687744%, 10.626221%, 27.101135%)" offset="0.585938"/><stop stop-opacity="1" stop-color="rgb(23.999023%, 10.777283%, 27.194214%)" offset="0.59375"/><stop stop-opacity="1" stop-color="rgb(24.308777%, 10.928345%, 27.287292%)" offset="0.601562"/><stop stop-opacity="1" stop-color="rgb(24.620056%, 11.079407%, 27.380371%)" offset="0.609375"/><stop stop-opacity="1" stop-color="rgb(24.92981%, 11.230469%, 27.474976%)" offset="0.617188"/><stop stop-opacity="1" stop-color="rgb(25.241089%, 11.381531%, 27.568054%)" offset="0.625"/><stop stop-opacity="1" stop-color="rgb(25.550842%, 11.534119%, 27.661133%)" offset="0.632813"/><stop stop-opacity="1" stop-color="rgb(25.862122%, 11.685181%, 27.754211%)" offset="0.640625"/><stop stop-opacity="1" stop-color="rgb(26.173401%, 11.836243%, 27.84729%)" offset="0.648438"/><stop stop-opacity="1" stop-color="rgb(26.483154%, 11.987305%, 27.940369%)" offset="0.65625"/><stop stop-opacity="1" stop-color="rgb(26.794434%, 12.138367%, 28.033447%)" offset="0.664062"/><stop stop-opacity="1" stop-color="rgb(27.104187%, 12.290955%, 28.126526%)" offset="0.671875"/><stop stop-opacity="1" stop-color="rgb(27.415466%, 12.442017%, 28.22113%)" offset="0.679688"/><stop stop-opacity="1" stop-color="rgb(27.72522%, 12.593079%, 28.314209%)" offset="0.6875"/><stop stop-opacity="1" stop-color="rgb(28.036499%, 12.744141%, 28.407288%)" offset="0.695312"/><stop stop-opacity="1" stop-color="rgb(28.346252%, 12.895203%, 28.500366%)" offset="0.703125"/><stop stop-opacity="1" stop-color="rgb(28.657532%, 13.046265%, 28.593445%)" offset="0.710938"/><stop stop-opacity="1" stop-color="rgb(28.967285%, 13.198853%, 28.686523%)" offset="0.71875"/><stop stop-opacity="1" stop-color="rgb(29.278564%, 13.349915%, 28.779602%)" offset="0.726563"/><stop stop-opacity="1" stop-color="rgb(29.589844%, 13.500977%, 28.872681%)" offset="0.734375"/><stop stop-opacity="1" stop-color="rgb(29.899597%, 13.652039%, 28.967285%)" offset="0.742188"/><stop stop-opacity="1" stop-color="rgb(30.210876%, 13.803101%, 29.060364%)" offset="0.75"/><stop stop-opacity="1" stop-color="rgb(30.52063%, 13.955688%, 29.153442%)" offset="0.757812"/><stop stop-opacity="1" stop-color="rgb(30.831909%, 14.10675%, 29.246521%)" offset="0.765625"/><stop stop-opacity="1" stop-color="rgb(31.141663%, 14.257812%, 29.3396%)" offset="0.773438"/><stop stop-opacity="1" stop-color="rgb(31.452942%, 14.408875%, 29.432678%)" offset="0.78125"/><stop stop-opacity="1" stop-color="rgb(31.762695%, 14.559937%, 29.525757%)" offset="0.789062"/><stop stop-opacity="1" stop-color="rgb(32.073975%, 14.710999%, 29.618835%)" offset="0.796875"/><stop stop-opacity="1" stop-color="rgb(32.383728%, 14.863586%, 29.711914%)" offset="0.804688"/><stop stop-opacity="1" stop-color="rgb(32.695007%, 15.014648%, 29.806519%)" offset="0.8125"/><stop stop-opacity="1" stop-color="rgb(33.006287%, 15.16571%, 29.899597%)" offset="0.820313"/><stop stop-opacity="1" stop-color="rgb(33.31604%, 15.316772%, 29.992676%)" offset="0.828125"/><stop stop-opacity="1" stop-color="rgb(33.627319%, 15.467834%, 30.085754%)" offset="0.835938"/><stop stop-opacity="1" stop-color="rgb(33.937073%, 15.618896%, 30.178833%)" offset="0.84375"/><stop stop-opacity="1" stop-color="rgb(34.248352%, 15.771484%, 30.271912%)" offset="0.851562"/><stop stop-opacity="1" stop-color="rgb(34.558105%, 15.922546%, 30.36499%)" offset="0.859375"/><stop stop-opacity="1" stop-color="rgb(34.869385%, 16.073608%, 30.458069%)" offset="0.867188"/><stop stop-opacity="1" stop-color="rgb(35.179138%, 16.22467%, 30.552673%)" offset="0.875"/><stop stop-opacity="1" stop-color="rgb(35.490417%, 16.375732%, 30.645752%)" offset="0.882812"/><stop stop-opacity="1" stop-color="rgb(35.800171%, 16.52832%, 30.738831%)" offset="0.890625"/><stop stop-opacity="1" stop-color="rgb(36.11145%, 16.679382%, 30.831909%)" offset="0.898438"/><stop stop-opacity="1" stop-color="rgb(36.422729%, 16.830444%, 30.924988%)" offset="0.90625"/><stop stop-opacity="1" stop-color="rgb(36.732483%, 16.981506%, 31.018066%)" offset="0.914063"/><stop stop-opacity="1" stop-color="rgb(37.043762%, 17.132568%, 31.111145%)" offset="0.921875"/><stop stop-opacity="1" stop-color="rgb(37.353516%, 17.28363%, 31.204224%)" offset="0.929688"/><stop stop-opacity="1" stop-color="rgb(37.664795%, 17.436218%, 31.298828%)" offset="0.9375"/><stop stop-opacity="1" stop-color="rgb(37.908936%, 17.555237%, 31.37207%)" offset="1"/></linearGradient></defs><g clip-path="url(#41eace04ed)"><g clip-path="url(#ead04d1bf1)"><path fill="url(#32b9541f01)" d="M 112.5 112.5 L 112.5 262.496094 L 262.082031 262.496094 L 262.082031 112.5 Z M 112.5 112.5 " fill-rule="nonzero"/></g></g><path fill="#ffffff" d="M 188.300781 176.953125 C 192.128906 176.953125 195.027344 176.132812 197.003906 174.460938 C 198.980469 172.785156 199.96875 170.347656 199.96875 167.109375 C 199.96875 163.910156 198.980469 161.480469 197.003906 159.816406 C 195.015625 158.113281 192.128906 157.261719 188.300781 157.261719 L 174.867188 157.261719 L 174.867188 176.953125 L 188.300781 176.953125 M 189.121094 217.640625 C 193.996094 217.640625 197.65625 216.625 200.09375 214.589844 C 202.574219 212.554688 203.816406 209.480469 203.816406 205.367188 C 203.816406 201.335938 202.597656 198.324219 200.15625 196.332031 C 197.71875 194.296875 194.042969 193.28125 189.121094 193.28125 L 174.871094 193.28125 L 174.871094 217.644531 L 189.121094 217.644531 M 211.699219 184.183594 C 216.914062 185.679688 220.949219 188.441406 223.808594 192.46875 C 226.667969 196.5 228.09375 201.441406 228.097656 207.300781 C 228.097656 216.273438 225.027344 222.960938 218.890625 227.367188 C 212.75 231.769531 203.417969 233.96875 190.890625 233.96875 L 150.59375 233.96875 L 150.59375 140.960938 L 187.042969 140.960938 C 200.121094 140.960938 209.578125 142.910156 215.421875 146.816406 C 221.308594 150.722656 224.25 156.976562 224.25 165.574219 C 224.25 170.101562 223.179688 173.964844 221.035156 177.164062 C 218.890625 180.320312 215.769531 182.65625 211.703125 184.203125 " fill-opacity="1" fill-rule="nonzero"/></svg>