<svg xmlns="http://www.w3.org/2000/svg" xmlns:xlink="http://www.w3.org/1999/xlink" width="500" zoomAndPan="magnify" viewBox="0 0 375 374.999991" height="500" preserveAspectRatio="xMidYMid meet" version="1.0"><path fill="#de4c36" d="M 258.777344 180.898438 L 194.097656 116.222656 C 190.375 112.496094 184.335938 112.496094 180.609375 116.21875 L 167.171875 129.652344 L 184.214844 146.691406 C 188.171875 145.351562 192.714844 146.25 195.867188 149.40625 C 199.039062 152.582031 199.929688 157.164062 198.558594 161.132812 L 214.984375 177.558594 C 218.953125 176.1875 223.535156 177.070312 226.714844 180.25 C 231.144531 184.683594 231.144531 191.871094 226.714844 196.300781 C 222.273438 200.742188 215.09375 200.742188 210.652344 196.300781 C 207.316406 192.964844 206.492188 188.066406 208.183594 183.957031 L 192.871094 168.644531 L 192.863281 208.941406 C 193.945312 209.480469 194.964844 210.191406 195.867188 211.089844 C 200.300781 215.519531 200.300781 222.707031 195.867188 227.148438 C 191.433594 231.582031 184.242188 231.582031 179.816406 227.148438 C 175.382812 222.707031 175.382812 215.519531 179.816406 211.089844 C 180.910156 209.996094 182.175781 209.167969 183.53125 208.613281 L 183.53125 167.9375 C 182.175781 167.386719 180.914062 166.5625 179.816406 165.460938 C 176.453125 162.105469 175.648438 157.175781 177.367188 153.050781 L 160.574219 136.25 L 116.222656 180.601562 C 112.496094 184.328125 112.496094 190.371094 116.222656 194.097656 L 180.902344 258.777344 C 184.628906 262.5 190.671875 262.5 194.398438 258.777344 L 258.78125 194.398438 C 262.507812 190.671875 262.507812 184.625 258.78125 180.898438 " fill-opacity="1" fill-rule="nonzero"/></svg>