<svg xmlns="http://www.w3.org/2000/svg" xmlns:xlink="http://www.w3.org/1999/xlink" width="500" zoomAndPan="magnify" viewBox="0 0 375 374.999991" height="500" preserveAspectRatio="xMidYMid meet" version="1.0"><defs><clipPath id="20cb53dace"><path d="M 187 112.5 L 222 112.5 L 222 243 L 187 243 Z M 187 112.5 " clip-rule="nonzero"/></clipPath><clipPath id="a454df2637"><path d="M 154 112.5 L 189 112.5 L 189 245 L 154 245 Z M 154 112.5 " clip-rule="nonzero"/></clipPath><clipPath id="9482b8b812"><path d="M 184 225 L 194 225 L 194 262.5 L 184 262.5 Z M 184 225 " clip-rule="nonzero"/></clipPath></defs><g clip-path="url(#20cb53dace)"><path fill="#599636" d="M 187.332031 112.90625 L 191.34375 120.425781 C 192.246094 121.8125 193.222656 123.042969 194.375 124.1875 C 197.730469 127.539062 200.921875 131.046875 203.785156 134.808594 C 210.582031 143.714844 215.167969 153.605469 218.441406 164.300781 C 220.402344 170.835938 221.46875 177.539062 221.550781 184.316406 C 221.878906 204.582031 214.917969 221.980469 200.882812 236.441406 C 198.589844 238.730469 196.140625 240.847656 193.507812 242.734375 C 192.121094 242.734375 191.460938 241.667969 190.890625 240.6875 C 189.824219 238.894531 189.167969 236.84375 188.839844 234.804688 C 188.347656 232.355469 188.023438 229.902344 188.183594 227.371094 L 188.183594 226.226562 C 188.070312 225.984375 186.84375 113.484375 187.332031 112.90625 Z M 187.332031 112.90625 " fill-opacity="1" fill-rule="nonzero"/></g><g clip-path="url(#a454df2637)"><path fill="#6cac48" d="M 187.332031 112.660156 C 187.167969 112.332031 187.003906 112.578125 186.839844 112.738281 C 186.921875 114.378906 186.347656 115.84375 185.449219 117.238281 C 184.464844 118.625 183.15625 119.691406 181.847656 120.835938 C 174.566406 127.125 168.835938 134.722656 164.25 143.222656 C 158.140625 154.660156 154.996094 166.917969 154.101562 179.820312 C 153.695312 184.476562 155.578125 200.902344 157.046875 205.640625 C 161.058594 218.222656 168.265625 228.765625 177.597656 237.914062 C 179.890625 240.117188 182.339844 242.160156 184.875 244.125 C 185.613281 244.125 185.695312 243.46875 185.863281 242.980469 C 186.1875 241.9375 186.433594 240.875 186.601562 239.792969 L 188.246094 227.539062 Z M 187.332031 112.660156 " fill-opacity="1" fill-rule="nonzero"/></g><g clip-path="url(#9482b8b812)"><path fill="#c2bfbf" d="M 191.34375 247.710938 C 191.507812 245.835938 192.410156 244.28125 193.390625 242.726562 C 192.40625 242.320312 191.671875 241.507812 191.101562 240.605469 C 190.605469 239.789062 190.199219 238.808594 189.878906 237.910156 C 188.734375 234.476562 188.488281 230.878906 188.160156 227.371094 L 188.160156 225.25 C 187.75 225.578125 187.667969 228.351562 187.667969 228.765625 C 187.425781 232.472656 186.9375 236.152344 186.191406 239.792969 C 185.949219 241.265625 185.785156 242.734375 184.875 244.039062 C 184.875 244.203125 184.875 244.367188 184.957031 244.613281 C 186.429688 248.945312 186.835938 253.355469 187.085938 257.851562 L 187.085938 259.492188 C 187.085938 261.449219 187.003906 261.039062 188.632812 261.695312 C 189.292969 261.9375 190.023438 262.023438 190.683594 262.507812 C 191.175781 262.507812 191.253906 262.101562 191.253906 261.773438 L 191.011719 259.078125 L 191.011719 251.558594 C 190.929688 250.246094 191.175781 248.945312 191.339844 247.714844 Z M 191.34375 247.710938 " fill-opacity="1" fill-rule="nonzero"/></g></svg>