<svg xmlns="http://www.w3.org/2000/svg" xmlns:xlink="http://www.w3.org/1999/xlink" width="500" zoomAndPan="magnify" viewBox="0 0 375 374.999991" height="500" preserveAspectRatio="xMidYMid meet" version="1.0"><defs><clipPath id="988d65309a"><path d="M 114 118 L 262.5 118 L 262.5 262.5 L 114 262.5 Z M 114 118 " clip-rule="nonzero"/></clipPath></defs><g clip-path="url(#988d65309a)"><path fill="#00678c" d="M 250.859375 229.5625 C 242.828125 229.339844 236.59375 230.160156 231.371094 232.359375 C 229.867188 232.960938 227.457031 232.960938 227.257812 234.855469 C 228.0625 235.648438 228.15625 236.949219 228.863281 238.050781 C 230.066406 240.046875 232.179688 242.738281 234.085938 244.136719 L 240.511719 248.730469 C 244.429688 251.125 248.847656 252.523438 252.664062 254.917969 C 254.875 256.316406 257.085938 258.113281 259.296875 259.613281 C 260.421875 260.410156 261.101562 261.710938 262.511719 262.207031 L 262.511719 261.90625 C 261.808594 261.011719 261.605469 259.710938 260.90625 258.710938 L 257.886719 255.816406 C 254.976562 251.925781 251.359375 248.527344 247.441406 245.734375 C 244.226562 243.539062 237.199219 240.546875 235.894531 236.855469 L 235.695312 236.628906 C 237.902344 236.40625 240.511719 235.628906 242.625 235.03125 C 246.042969 234.136719 249.152344 234.332031 252.664062 233.433594 L 257.488281 232.035156 L 257.488281 231.140625 C 255.683594 229.34375 254.375 226.949219 252.46875 225.253906 C 247.347656 220.859375 241.71875 216.566406 235.894531 212.972656 C 232.78125 210.976562 228.761719 209.679688 225.445312 207.984375 C 224.238281 207.386719 222.230469 207.085938 221.53125 206.085938 C 219.71875 203.894531 218.714844 200.996094 217.410156 198.398438 L 209.175781 181.03125 C 207.367188 177.136719 206.257812 173.246094 204.050781 169.652344 C 193.707031 152.683594 182.453125 142.402344 165.175781 132.316406 C 161.460938 130.222656 157.042969 129.320312 152.34375 128.222656 L 144.8125 127.820312 C 143.203125 127.121094 141.597656 125.226562 140.1875 124.324219 C 134.464844 120.730469 119.699219 112.945312 115.476562 123.207031 C 112.761719 129.695312 119.496094 136.082031 121.78125 139.378906 C 123.492188 141.671875 125.699219 144.269531 126.90625 146.863281 C 127.582031 148.558594 127.808594 150.359375 128.511719 152.15625 C 130.117188 156.546875 131.625 161.441406 133.734375 165.535156 C 134.859375 167.632812 136.042969 169.832031 137.449219 171.726562 C 138.253906 172.84375 139.660156 173.324219 139.960938 175.121094 C 138.550781 177.117188 138.457031 180.109375 137.652344 182.609375 C 134.035156 193.890625 135.441406 207.863281 140.5625 216.167969 C 142.171875 218.664062 145.964844 224.15625 151.113281 222.058594 C 155.632812 220.261719 154.625 214.570312 155.929688 209.582031 C 156.234375 208.382812 156.03125 207.585938 156.632812 206.785156 L 156.632812 207.007812 L 160.753906 215.292969 C 163.867188 220.183594 169.292969 225.273438 173.8125 228.671875 C 176.21875 230.46875 178.128906 233.566406 181.140625 234.660156 L 181.140625 234.359375 L 180.941406 234.359375 C 180.339844 233.464844 179.433594 233.0625 178.628906 232.363281 C 176.824219 230.566406 174.816406 228.371094 173.40625 226.375 C 169.191406 220.785156 165.476562 214.59375 162.160156 208.207031 C 160.550781 205.113281 159.144531 201.71875 157.84375 198.625 C 157.234375 197.425781 157.234375 195.625 156.230469 195.03125 C 154.722656 197.222656 152.519531 199.125 151.40625 201.820312 C 149.5 206.109375 149.300781 211.402344 148.597656 216.890625 C 148.191406 216.992188 148.371094 216.890625 148.191406 217.117188 C 144.980469 216.320312 143.875 213.019531 142.671875 210.230469 C 139.65625 203.140625 139.152344 191.761719 141.765625 183.574219 C 142.46875 181.480469 145.484375 174.890625 144.28125 172.894531 C 143.671875 170.996094 141.667969 169.898438 140.5625 168.402344 C 139.253906 166.503906 137.851562 164.109375 136.949219 162.011719 C 134.539062 156.421875 133.335938 150.234375 130.71875 144.644531 C 129.511719 142.046875 127.402344 139.351562 125.695312 136.957031 C 123.785156 134.261719 121.679688 132.363281 120.171875 129.171875 C 119.671875 128.050781 118.96875 126.277344 119.773438 125.078125 C 119.96875 124.277344 120.375 123.957031 121.175781 123.78125 C 122.480469 122.660156 126.199219 124.078125 127.503906 124.675781 C 131.21875 126.171875 134.332031 127.570312 137.445312 129.664062 C 138.855469 130.660156 140.363281 132.558594 142.171875 133.058594 L 144.28125 133.058594 C 147.496094 133.757812 151.109375 133.285156 154.121094 134.179688 C 159.445312 135.878906 164.265625 138.371094 168.585938 141.070312 C 181.746094 149.355469 192.597656 161.132812 199.925781 175.210938 C 201.128906 177.507812 201.632812 179.605469 202.738281 182 C 204.851562 186.894531 207.464844 191.882812 209.570312 196.675781 C 211.679688 201.367188 213.6875 206.164062 216.699219 210.054688 C 218.210938 212.152344 224.234375 213.25 226.945312 214.347656 C 228.953125 215.242188 232.066406 216.046875 233.878906 217.144531 C 237.292969 219.242188 240.707031 221.636719 243.917969 223.933594 C 245.523438 225.128906 250.550781 227.625 250.847656 229.617188 Z M 148.425781 142.816406 C 147.03125 142.800781 145.660156 142.96875 144.308594 143.3125 L 144.308594 143.539062 L 144.507812 143.539062 C 145.3125 145.136719 146.71875 146.234375 147.722656 147.632812 L 150.035156 152.425781 L 150.230469 152.199219 C 151.640625 151.203125 152.34375 149.605469 152.34375 147.210938 C 151.742188 146.511719 151.640625 145.8125 151.140625 145.113281 C 150.535156 144.117188 149.230469 143.617188 148.425781 142.820312 Z M 148.425781 142.816406 " fill-opacity="1" fill-rule="evenodd"/></g></svg>