<svg xmlns="http://www.w3.org/2000/svg" xmlns:xlink="http://www.w3.org/1999/xlink" width="500" zoomAndPan="magnify" viewBox="0 0 375 374.999991" height="500" preserveAspectRatio="xMidYMid meet" version="1.0"><defs><clipPath id="def3fcc05a"><path d="M 112.5 112.5 L 262.5 112.5 L 262.5 262.5 L 112.5 262.5 Z M 112.5 112.5 " clip-rule="nonzero"/></clipPath></defs><g clip-path="url(#def3fcc05a)"><path fill="#1a54bf" d="M 257.171875 128.679688 L 226.3125 113.832031 C 224.570312 112.988281 222.601562 112.707031 220.691406 113.03125 C 218.777344 113.355469 217.015625 114.265625 215.644531 115.636719 L 156.542969 169.566406 L 130.785156 150.035156 C 129.625 149.148438 128.191406 148.695312 126.734375 148.757812 C 125.273438 148.820312 123.882812 149.394531 122.804688 150.375 L 114.554688 157.894531 C 113.910156 158.476562 113.394531 159.1875 113.039062 159.980469 C 112.6875 160.777344 112.503906 161.632812 112.5 162.503906 C 112.496094 163.371094 112.675781 164.234375 113.027344 165.027344 C 113.375 165.824219 113.890625 166.539062 114.53125 167.125 L 136.871094 187.507812 L 114.53125 207.894531 C 113.890625 208.480469 113.375 209.191406 113.027344 209.988281 C 112.675781 210.785156 112.496094 211.644531 112.5 212.511719 C 112.503906 213.382812 112.6875 214.242188 113.039062 215.035156 C 113.394531 215.828125 113.910156 216.539062 114.554688 217.121094 L 122.804688 224.640625 C 123.882812 225.625 125.273438 226.195312 126.734375 226.257812 C 128.191406 226.320312 129.625 225.871094 130.785156 224.984375 L 156.542969 205.429688 L 215.675781 259.378906 C 217.039062 260.75 218.800781 261.664062 220.707031 261.984375 C 222.617188 262.308594 224.578125 262.027344 226.320312 261.183594 L 257.203125 246.316406 C 258.792969 245.550781 260.136719 244.351562 261.074219 242.859375 C 262.011719 241.363281 262.503906 239.632812 262.5 237.867188 L 262.5 137.113281 C 262.5 133.523438 260.425781 130.230469 257.179688 128.667969 Z M 225.015625 221.570312 L 180.144531 187.511719 L 225.015625 153.457031 Z M 225.015625 221.570312 " fill-opacity="1" fill-rule="nonzero"/></g></svg>